<svg width="61" height="61" viewBox="0 0 61 61" fill="none" xmlns="http://www.w3.org/2000/svg">
<path fill-rule="evenodd" clip-rule="evenodd" d="M30.5 57.1875C45.2391 57.1875 57.1875 45.2391 57.1875 30.5C57.1875 15.7609 45.2391 3.8125 30.5 3.8125C15.7609 3.8125 3.8125 15.7609 3.8125 30.5C3.8125 45.2391 15.7609 57.1875 30.5 57.1875Z" fill="#F2F2F2"/>
<path d="M21.6001 25.7338H27.9457V26.2341H22.1794V30.0256H27.6034V30.5259H22.1794V34.686H28.0247V35.1863H21.6001V25.7338ZM28.5249 25.7338H29.2095L32.2111 29.8939L35.2391 25.7338L39.3993 20.4678L32.5534 30.3416L36.0817 35.1863H35.3708L32.1848 30.7628L28.9725 35.1863H28.288L31.8425 30.3416L28.5249 25.7338ZM36.345 26.2341V25.7338H43.5857V26.2341H40.2418V35.1863H39.6626V26.2341H36.345ZM13.6484 25.7338H14.3593L24.4174 40.6893L20.2573 35.1863L14.254 26.4447L14.2277 35.1863H13.6484V25.7338ZM43.5331 34.528C43.6647 34.528 43.7437 34.449 43.7437 34.3174C43.7437 34.1857 43.6647 34.1068 43.5331 34.1068C43.4014 34.1068 43.3224 34.1857 43.3224 34.3174C43.3224 34.449 43.4278 34.528 43.5331 34.528ZM44.1123 33.9751C44.1123 34.3174 44.3756 34.5544 44.7443 34.5544C45.1392 34.5544 45.3762 34.3174 45.3762 33.8961V32.448H45.0602V33.8961C45.0602 34.1331 44.9549 34.2384 44.7443 34.2384C44.5599 34.2384 44.4283 34.1331 44.4283 33.9488H44.1123V33.9751ZM45.7711 33.9488C45.7975 34.3174 46.0871 34.5544 46.561 34.5544C47.035 34.5544 47.3509 34.3174 47.3509 33.9224C47.3509 33.6065 47.1666 33.4485 46.7717 33.3432L46.5347 33.2905C46.2714 33.2379 46.1661 33.1325 46.1661 33.0009C46.1661 32.8166 46.3241 32.6849 46.5874 32.6849C46.8243 32.6849 46.9823 32.7902 47.0086 33.0009H47.3246C47.2983 32.6586 47.0086 32.4216 46.5874 32.4216C46.1398 32.4216 45.8501 32.6586 45.8501 33.0272C45.8501 33.3169 46.0081 33.5012 46.3767 33.5802L46.64 33.6328C46.9033 33.6855 47.035 33.7908 47.035 33.9488C47.035 34.1331 46.8507 34.2647 46.5874 34.2647C46.3241 34.2647 46.1134 34.1331 46.0871 33.9488H45.7711Z" fill="black"/>
</svg>
