<svg width="68" height="68" viewBox="0 0 68 68" fill="none" xmlns="http://www.w3.org/2000/svg">
<path fill-rule="evenodd" clip-rule="evenodd" d="M34 63.75C50.4305 63.75 63.75 50.4305 63.75 34C63.75 17.5695 50.4305 4.25 34 4.25C17.5695 4.25 4.25 17.5695 4.25 34C4.25 50.4305 17.5695 63.75 34 63.75Z" fill="#000000"/>
<path d="M34.0004 37.3455C35.8484 37.3455 37.3465 35.8474 37.3465 33.9994C37.3465 32.1514 35.8484 30.6533 34.0004 30.6533C32.1524 30.6533 30.6543 32.1514 30.6543 33.9994C30.6543 35.8474 32.1524 37.3455 34.0004 37.3455Z" fill="#61DAFB"/>
<path d="M46.7103 28.4812C46.0645 28.2464 45.3894 28.0116 44.685 27.8061C44.8611 27.1017 45.0079 26.3973 45.1253 25.7222C45.7417 21.8478 45.0666 19.1181 43.1881 18.0614C42.6304 17.7386 42.014 17.5918 41.3096 17.5918C39.255 17.5918 36.6427 19.1181 34.001 21.6717C31.3594 19.1181 28.7471 17.5918 26.6925 17.5918C25.9881 17.5918 25.3717 17.7386 24.814 18.0614C22.9355 19.1474 22.2604 21.8771 22.8768 25.7222C22.9942 26.3973 23.141 27.1017 23.3171 27.8061C22.6126 28.0116 21.9375 28.2171 21.2918 28.4812C17.6229 29.8901 15.627 31.8273 15.627 33.9993C15.627 36.1713 17.6522 38.1085 21.2918 39.5174C21.9375 39.7522 22.6126 39.987 23.3171 40.1925C23.141 40.8969 22.9942 41.6014 22.8768 42.2765C22.2604 46.1509 22.9355 48.8806 24.814 49.9372C25.3717 50.2601 25.9881 50.4068 26.6925 50.4068C28.7765 50.4068 31.3887 48.8806 34.001 46.327C36.6427 48.8806 39.255 50.4068 41.3096 50.4068C42.014 50.4068 42.6304 50.2601 43.1881 49.9372C45.0666 48.8512 45.7417 46.1215 45.1253 42.2765C45.0079 41.6014 44.8611 40.8969 44.685 40.1925C45.3894 39.987 46.0645 39.7816 46.7103 39.5174C50.3792 38.1085 52.3751 36.1713 52.3751 33.9993C52.3751 31.8273 50.3792 29.8901 46.7103 28.4812ZM42.3662 19.529C43.5696 20.2334 43.9806 22.4055 43.4816 25.4874C43.3935 26.1037 43.2468 26.7495 43.0707 27.4246C41.5444 27.0724 39.93 26.8375 38.2277 26.6908C37.2297 25.2819 36.2024 24.0198 35.1751 22.8751C37.3471 20.7324 39.5485 19.2648 41.3389 19.2648C41.7205 19.2648 42.0727 19.3529 42.3662 19.529ZM39.0789 36.9345C38.5505 37.8737 37.9341 38.813 37.2884 39.7522C36.2024 39.8403 35.1164 39.8696 34.001 39.8696C32.8563 39.8696 31.7703 39.8403 30.7137 39.7522C30.0679 38.813 29.4809 37.8737 28.9526 36.9345C28.3949 35.9659 27.8666 34.9679 27.3969 33.9993C27.8666 33.0307 28.3949 32.0328 28.9526 31.0642C29.4809 30.1249 30.0973 29.1857 30.743 28.2464C31.829 28.1584 32.915 28.129 34.0304 28.129C35.1751 28.129 36.2611 28.1584 37.3178 28.2464C37.9635 29.1857 38.5505 30.1249 39.0789 31.0642C39.6365 32.0328 40.1649 33.0307 40.6345 33.9993C40.1355 34.9679 39.6365 35.9365 39.0789 36.9345ZM41.515 35.9659C41.9553 36.9932 42.3075 37.9911 42.6304 38.9891C41.6324 39.2239 40.5758 39.4 39.4604 39.5468C39.8126 38.9891 40.1942 38.4021 40.5171 37.7857C40.8693 37.1693 41.1922 36.5529 41.515 35.9659ZM34.001 43.9201C33.2966 43.157 32.6215 42.3352 31.9758 41.484C32.6509 41.5133 33.3259 41.5427 34.001 41.5427C34.6761 41.5427 35.3512 41.5133 36.0263 41.484C35.3806 42.3352 34.7055 43.157 34.001 43.9201ZM28.5416 39.5174C27.4263 39.3707 26.3696 39.1945 25.3717 38.9597C25.6945 37.9911 26.0468 36.9638 26.487 35.9365C26.8099 36.5236 27.1328 37.1399 27.485 37.727C27.8372 38.3727 28.1894 38.9304 28.5416 39.5174ZM26.487 32.0328C26.0468 31.0055 25.6945 30.0075 25.3717 29.0096C26.3696 28.7747 27.4263 28.5986 28.5416 28.4519C28.1894 29.0096 27.8079 29.5966 27.485 30.213C27.1328 30.8294 26.8099 31.4457 26.487 32.0328ZM34.001 24.0785C34.7055 24.8416 35.3806 25.6635 36.0263 26.5147C35.3512 26.4853 34.6761 26.456 34.001 26.456C33.3259 26.456 32.6509 26.4853 31.9758 26.5147C32.6215 25.6635 33.2966 24.8416 34.001 24.0785ZM40.5171 30.2423L39.4604 28.4812C40.5758 28.628 41.6324 28.8041 42.6304 29.0389C42.3075 30.0075 41.9553 31.0348 41.515 32.0621C41.1922 31.4457 40.8693 30.8293 40.5171 30.2423ZM24.5205 25.4874C24.0215 22.4055 24.4324 20.2334 25.6358 19.529C25.9294 19.3529 26.2816 19.2648 26.6631 19.2648C28.4242 19.2648 30.6256 20.7031 32.827 22.8751C31.7997 23.9904 30.7724 25.2819 29.7744 26.6908C28.072 26.8375 26.4577 27.1017 24.9314 27.4246C24.7553 26.7495 24.6379 26.1037 24.5205 25.4874ZM17.2706 33.9993C17.2706 32.6198 18.9437 31.1522 21.8788 30.0662C22.4659 29.8314 23.1116 29.6259 23.7573 29.4498C24.227 30.9174 24.814 32.473 25.5184 34.0287C24.814 35.5843 24.1976 37.1106 23.7573 38.5782C19.7068 37.4041 17.2706 35.643 17.2706 33.9993ZM25.6358 48.4696C24.4324 47.7652 24.0215 45.5932 24.5205 42.5113C24.6085 41.8949 24.7553 41.2492 24.9314 40.5741C26.4577 40.9263 28.072 41.1611 29.7744 41.3079C30.7724 42.7167 31.7997 43.9788 32.827 45.1236C30.655 47.2662 28.4536 48.7338 26.6631 48.7338C26.2816 48.7338 25.9294 48.6457 25.6358 48.4696ZM43.4816 42.5113C43.9806 45.5932 43.5696 47.7652 42.3662 48.4696C42.0727 48.6457 41.7205 48.7338 41.3389 48.7338C39.5778 48.7338 37.3765 47.2956 35.1751 45.1236C36.2024 44.0082 37.2297 42.7167 38.2277 41.3079C39.93 41.1611 41.5444 40.8969 43.0707 40.5741C43.2468 41.2492 43.3642 41.8949 43.4816 42.5113ZM46.1232 37.9324C45.5362 38.1672 44.8905 38.3727 44.2447 38.5488C43.7751 37.0812 43.1881 35.5256 42.4836 33.97C43.1881 32.4143 43.8045 30.8881 44.2447 29.4205C48.2952 30.5945 50.7314 32.3556 50.7314 33.9993C50.7314 35.3788 49.029 36.8464 46.1232 37.9324Z" fill="#61DAFB"/>
</svg>
