<svg width="800" height="800" viewBox="0 0 800 800" fill="none" xmlns="http://www.w3.org/2000/svg">
<path fill-rule="evenodd" clip-rule="evenodd" d="M400 750C593.3 750 750 593.3 750 400C750 206.7 593.3 50 400 50C206.7 50 50 206.7 50 400C50 593.3 206.7 750 400 750Z" fill="#F2F2F2"/>
<path d="M592.814 237.482C543.486 178.737 446.049 161.327 375.626 198.669L251.904 264.278C235.167 273.011 220.805 284.552 209.734 298.167C198.664 311.783 191.132 327.17 187.621 343.344C186.056 350.603 185.26 358.006 185.245 365.431C185.321 385.566 191.253 405.387 202.535 423.201C191.958 436.572 184.737 451.586 181.312 467.339C177.803 483.804 178.294 500.87 182.745 517.106C187.199 533.449 195.528 548.888 207.248 562.521C256.573 621.262 354.227 638.673 424.432 601.334L548.027 535.722C564.754 526.978 579.098 515.424 590.141 501.795C601.181 488.165 608.674 472.764 612.137 456.583C613.726 449.307 614.524 441.928 614.513 434.531C614.482 414.434 608.626 394.644 597.438 376.833C608.011 363.473 615.231 348.472 618.664 332.733C620.197 325.45 620.977 318.075 620.998 310.681C621.005 284.455 611.15 258.885 592.814 237.551V237.482V237.482Z" fill="#FF3E00"/>
<path d="M363.535 568.053C355.409 569.795 347.122 570.674 338.811 570.677C322.944 570.681 307.312 567.483 293.254 561.354C279.2 555.228 267.138 546.357 258.105 535.5C247.075 522.669 241.15 507.285 241.16 491.508C241.167 487.06 241.63 482.625 242.541 478.272C243.284 474.996 244.282 471.784 245.528 468.665L247.863 462.767L254.172 466.759C268.823 475.706 285.194 482.519 302.584 486.905L307.17 488.055L306.738 491.867V493.845C306.728 498.614 308.513 503.272 311.839 507.154C314.525 510.462 318.144 513.176 322.378 515.054C326.714 516.957 331.397 517.941 336.131 517.945C338.631 517.953 341.124 517.688 343.566 517.154C346.216 516.577 348.776 515.645 351.177 514.385L474.764 448.451C478.469 446.496 481.522 443.792 483.632 440.591C485.738 437.39 486.836 433.796 486.822 430.142C486.788 425.373 484.958 420.732 481.591 416.868C478.863 413.602 475.223 410.936 470.986 409.092C466.648 407.23 461.974 406.278 457.253 406.295C454.754 406.287 452.26 406.554 449.819 407.089C447.181 407.653 444.635 408.584 442.256 409.855L395.138 434.89C387.209 439.044 378.764 442.128 370.024 444.062C361.944 445.795 353.639 446.679 345.296 446.686C329.432 446.686 313.807 443.488 299.753 437.37C285.699 431.251 273.633 422.39 264.59 411.547C253.574 398.708 247.649 383.328 247.645 367.554C247.652 363.117 248.115 358.69 249.026 354.318C251.143 344.594 255.66 335.343 262.3 327.153C268.937 318.958 277.549 312.004 287.587 306.731L411.306 241.156C419.069 237.047 427.536 233.939 436.421 231.947C444.501 230.223 452.806 229.357 461.145 229.357C477.047 229.322 492.72 232.499 506.823 238.615C520.925 244.727 533.032 253.601 542.11 264.465C553.06 277.334 558.91 292.725 558.841 308.492C558.833 312.952 558.369 317.4 557.456 321.766C556.715 325.04 555.717 328.251 554.473 331.369L552.138 337.267L545.829 333.42C531.188 324.459 514.813 317.646 497.417 313.275L492.831 312.09L493.262 308.274V306.299C493.262 301.517 491.481 296.855 488.162 292.953C485.438 289.69 481.808 287.027 477.575 285.183C473.245 283.321 468.579 282.366 463.866 282.376C461.391 282.421 458.928 282.735 456.521 283.312C453.866 283.866 451.304 284.798 448.914 286.081L325.195 351.656C322.26 353.179 319.665 355.282 317.567 357.837C315.611 360.223 314.241 363.034 313.569 366.045C313.264 367.296 313.076 368.572 313.006 369.857C313.002 374.616 314.784 379.257 318.106 383.131C320.827 386.394 324.46 389.06 328.69 390.901C333.02 392.763 337.686 393.717 342.399 393.705C344.899 393.712 347.392 393.446 349.833 392.911C352.488 392.351 355.05 391.42 357.444 390.145L404.648 364.964C412.574 360.803 421.021 357.719 429.763 355.793C437.89 354.053 446.177 353.174 454.487 353.169C470.358 353.169 485.99 356.363 500.051 362.482C514.112 368.601 526.188 377.465 535.239 388.311C546.254 401.146 552.18 416.526 552.183 432.304C552.193 436.789 551.717 441.268 550.757 445.681C548.654 455.409 544.137 464.663 537.5 472.857C530.86 481.048 522.245 487.999 512.196 493.269L388.695 558.844C380.756 563.017 372.296 566.114 363.539 568.053H363.535Z" fill="white"/>
</svg>
