<svg width="50" height="50" viewBox="0 0 50 50" fill="none" xmlns="http://www.w3.org/2000/svg">
<path fill-rule="evenodd" clip-rule="evenodd" d="M25 46.875C37.0812 46.875 46.875 37.0812 46.875 25C46.875 12.9188 37.0812 3.125 25 3.125C12.9188 3.125 3.125 12.9188 3.125 25C3.125 37.0812 12.9188 46.875 25 46.875Z" fill="#F2F2F2"/>
<path fill-rule="evenodd" clip-rule="evenodd" d="M40.0625 16.375L31.2477 33.625H22.9681L26.6571 26.4758H26.4916C23.4482 30.4307 18.9074 33.0342 12.4375 33.625V26.5748C12.4375 26.5748 16.5765 26.3301 19.0096 23.7693H12.4375V16.3751H19.8239V22.4567L19.9897 22.456L23.008 16.3751H28.5942V22.4181L28.7599 22.4179L31.8915 16.375H40.0625Z" fill="#146EF5"/>
</svg>
